The Patriot*2000*[BluRay][1080p][ENG, POL, multisub]

General information:
Country: Germany, USA 
Release: 27 June 2000
Genre: Action, Drama, War 
Director: Roland Emmerich
Screenplay: Robert Rodat
Original Music: John Williams
Cinematography by: Caleb Deschanel 
Duration: 2h 55mn
Language: English, Polish
Subtitles: English, Polish, French, Dutch, Czech, Arabic, Bulgarian, Croatian, Danish, Finnish, Greek, Hebrew, Hindi, Hungarian, Icelandic, Korean, Norwegian, Romanian, Slovenian, Swedish, Turkish, Spanish, Portuguese
Rating: 7.6/10 - 24732 votes 

Cast:
Mel Gibson  ...  Benjamin Martin  
Heath Ledger  ...  Gabriel Martin  
Joely Richardson  ...  Charlotte Selton  
Jason Isaacs  ...  Col. William Tavington  
Chris Cooper  ...  Col. Harry Burwell  
Tchéky Karyo  ...  Jean Villeneuve  
Rene Auberjonois  ...  Reverend Oliver  
Lisa Brenner  ...  Anne Howard  
Tom Wilkinson  ...  Gen. Lord Charles Cornwallis  
Donal Logue  ...  Dan Scott  
Leon Rippy  ...  John Billings  
Adam Baldwin  ...  Capt. Wilkins  
Jay Arlen Jones  ...  Occam  
Joey D. Vieira  ...  Peter Howard  
Gregory Smith  ...  Thomas Martin  

Plot:
Peaceful farmer Benjamin Martin is driven to lead the Colonial Militia during the American Revolution when a sadistic British officer murders his son. 

Specifications:
General
Format                           : BDAV
Format/Info                      : Blu-ray Video
Overall bit rate                 : 6 129 Kbps
Maximum Overall bit rate         : 35.5 Mbps

Video
Format                           : AVC
Format/Info                      : Advanced Video Codec
Format profile                   : High@L4.1
Format settings, CABAC           : Yes
Format settings, ReFrames        : 3 frames
Bit rate mode                    : Variable
Bit rate                         : 4 550 Kbps
Nominal bit rate                 : 4 028 Kbps
Maximum bit rate                 : 40.0 Mbps
Width                            : 1 920 pixels
Height                           : 1 080 pixels
Display aspect ratio             : 16:9
Frame rate                       : 23.976 fps

Audio 1
Format                           : AC-3
Format/Info                      : Audio Coding 3
Mode extension                   : CM (complete main)
Bit rate mode                    : Constant
Bit rate                         : 640 Kbps
Channel(s)                       : 6 channels
Channel positions                : Front: L C R, Side: L R, LFE
Sampling rate                    : 48.0 KHz
Stream size                      : 802 MiB (10%)
Language                         : English

Audio 2
Format                           : AC-3
Format/Info                      : Audio Coding 3
Mode extension                   : CM (complete main)
Duration                         : 2h 55mn
Bit rate mode                    : Constant
Bit rate                         : 640 Kbps
Channel(s)                       : 6 channels
Channel positions                : Front: L C R, Side: L R, LFE
Sampling rate                    : 48.0 KHz
Stream size                      : 802 MiB (10%)
Language                         : Polish

Text 
Format                           : PGS
